<svg viewBox="0 0 26 26" xmlns="http://www.w3.org/2000/svg"><path d="M 13 0.09375 L 12 3.1875 L 12.5625 6.6875 L 11.5 3.1875 C 8.5 3.886719 6 6.613281 6 9.8125 C 6 14.011719 5.699219 18.699219 4 19.5 C 4 19.5 4.085938 20.300781 4.6875 21 C 7.488281 24.199219 13 26 13 26 C 13 26 18.613281 24.300781 21.3125 21 C 21.914063 20.300781 22 19.5 22 19.5 C 20.300781 18.800781 20 14.011719 20 9.8125 C 20 6.613281 17.601563 3.886719 14.5 3.1875 L 13.4375 6.6875 L 14 3.1875 Z M 7.90625 12 L 12.09375 13.8125 C 12.09375 13.8125 11.1875 15.511719 9.6875 15.3125 C 8.1875 15.113281 7.90625 12 7.90625 12 Z M 18.09375 12 C 18.09375 12 17.8125 15.113281 16.3125 15.3125 C 14.8125 15.511719 13.90625 13.8125 13.90625 13.8125 Z " fill="#eee"/></svg>